<?xml version="1.0" encoding="UTF-8"?>
<svg width="158px" height="40px" viewBox="0 0 158 40" version="1.1" xmlns="http://www.w3.org/2000/svg" xmlns:xlink="http://www.w3.org/1999/xlink">
    <!-- Generator: sketchtool 51 (57462) - http://www.bohemiancoding.com/sketch -->
    <title>D30A6917-7208-42B7-BEC3-86BE3F36B9B5</title>
    <desc>Created with sketchtool.</desc>
    <defs></defs>
    <g id="Page-1" stroke="none" stroke-width="1" fill="none" fill-rule="evenodd">
        <g id="Sign-In-01" transform="translate(-128.000000, -40.000000)">
            <g id="Common/Logo" transform="translate(128.000000, 40.000000)">
                <path d="M19.1155794,10.2936739 C14.365223,7.45824573 15.470458,2.93737058 11.2716049,1.38927756 C11.2716049,1.38927756 12.2034042,0 13.8709126,0 C17.9275261,0 18.9202321,4.25761349 22.3399243,6.86054161 C25.759245,9.46346972 31.7028541,8.37858846 35.0438131,6.54183761 C41.3097824,3.09654373 44.0617284,6.73177232 44.0617284,6.73177232 C34.8644352,13.7994179 23.8659359,13.1287445 19.1155794,10.2936739 Z M40.1860811,18.7940358 C42.185184,15.014463 45.3512257,12.5962494 47.5196602,11.2820513 C48.3500568,12.071907 49.2553977,12.9263771 50.2098765,13.8157539 C50.0819057,13.9613221 49.9334312,14.0901796 49.7591504,14.1893293 C48.006798,15.1863968 45.0026642,17.2696552 43.243595,20.5950702 C42.8183216,21.3986658 41.8917701,21.7469896 41.076928,21.4112916 L41.0744534,21.4101776 C40.08427,21.0024382 39.669602,19.7706792 40.1860811,18.7940358 Z M49.4655993,22.7589174 C50.5207396,21.0156246 52.9201143,18.7696691 54.5990706,17.4358974 C55.521249,18.2734171 56.4551907,19.1094284 57.382716,19.9228142 C56.1422133,20.7980429 53.3489433,23.2600716 52.4228438,24.8046373 C51.9776174,25.5478841 51.0814611,25.8314568 50.3072162,25.510175 C49.2691863,25.0795368 48.8642406,23.7517986 49.4655993,22.7589174 Z M61.6180461,22.5641026 C62.653571,23.3307139 63.6432477,24.0325847 64.5555556,24.6382008 C64.522244,24.6673169 64.4921561,24.6988309 64.455979,24.7255493 C64.2682878,24.8642792 61.6610288,26.9722892 61.483367,27.15829 C60.9951551,27.6697068 60.2196756,27.826249 59.5455636,27.5737948 L59.5423398,27.5724246 C58.3972091,27.1428756 58.0282742,25.742217 58.8560494,24.8721577 C59.0960361,24.6203885 60.6867543,23.3146144 61.6180461,22.5641026 Z M82.6627352,34.0806645 C82.8751682,34.4000286 83,34.7809742 83,35.1909203 L83,37.9649487 C83,39.0888097 82.0710617,40 80.9249452,40 L36.7001812,40 C34.3272822,40 32.6712534,38.0225918 29.7906321,38.0225918 C26.9100108,38.0225918 24.7761902,40 22.1747979,40 L2.04585433,40 C0.998289313,40 0.160967308,39.2470597 0,38.3000662 C0.182867622,36.6294911 1.24284282,27.5977874 3.68545784,18.4615385 C7.73884095,18.706432 11.4213788,22.1607204 10.8844561,25.9565708 C10.3274581,29.8945597 9.90149696,31.5622706 9.90149696,33.1723385 C9.90149696,34.7824063 12.4006878,36.6498989 16.9019323,36.6498989 C21.4031769,36.6498989 24.7079342,33.155869 29.8935636,33.155869 C35.0788279,33.155869 38.0952312,37.0723761 43.1114981,37.0723761 C48.1274,37.0723761 68.7764761,33.155869 68.7764761,33.155869 L68.7764761,26.9952203 L73.2302699,26.9952203 C77.7450197,26.9952203 81.5425341,29.999821 82.6627352,34.0806645 Z" id="Combined-Shape" fill="#01CE9F"></path>
                <path d="M94.7024151,11.0344828 L94.7024151,19.3103448 L91.6856324,19.3103448 L91.6856324,0 L94.7024151,0 L94.7024151,8.27586207 L98.1305772,8.27586207 L98.1305772,0 L101.20221,0 L101.20221,19.3103448 L98.1305772,19.3103448 L98.1305772,11.0344828 L94.7024151,11.0344828 Z M110.088007,0 L113.15964,19.3103448 L110.115432,19.3103448 L109.594351,15.8068966 L105.891936,15.8068966 L105.370856,19.3103448 L102.600901,19.3103448 L105.672534,0 L110.088007,0 Z M107.729431,3.42068966 L106.27589,13.1862069 L109.182972,13.1862069 L107.729431,3.42068966 Z M119.001228,0 C122.018011,0 123.498977,1.68275862 123.498977,4.77241379 L123.498977,7.28275862 C123.498977,10.3724138 122.018011,12.0551724 119.001228,12.0551724 L117.575113,12.0551724 L117.575113,19.3103448 L114.55833,19.3103448 L114.55833,0 L119.001228,0 Z M119.001228,2.75862069 L117.575113,2.75862069 L117.575113,9.29655172 L119.001228,9.29655172 C119.961113,9.29655172 120.482194,8.85517241 120.482194,7.47586207 L120.482194,4.57931034 C120.482194,3.2 119.961113,2.75862069 119.001228,2.75862069 Z M129.340565,0 C132.357348,0 133.838314,1.68275862 133.838314,4.77241379 L133.838314,7.28275862 C133.838314,10.3724138 132.357348,12.0551724 129.340565,12.0551724 L127.914449,12.0551724 L127.914449,19.3103448 L124.897667,19.3103448 L124.897667,0 L129.340565,0 Z M129.340565,2.75862069 L127.914449,2.75862069 L127.914449,9.29655172 L129.340565,9.29655172 C130.30045,9.29655172 130.821531,8.85517241 130.821531,7.47586207 L130.821531,4.57931034 C130.821531,3.2 130.30045,2.75862069 129.340565,2.75862069 Z M138.006959,19.3103448 L138.006959,12.9103448 L134.194842,0 L137.348752,0 L139.652476,8.8 L141.956201,0 L144.835858,0 L141.023741,12.9103448 L141.023741,19.3103448 L138.006959,19.3103448 Z M99.4744167,40 L98.3774048,29.7103448 L97.280393,40 L93.1391731,40 L91,20.6896552 L93.9345068,20.6896552 L95.5525993,35.9172414 L97.00614,20.6896552 L99.9132214,20.6896552 L101.421613,36.0275862 L102.984855,20.6896552 L105.617683,20.6896552 L103.47851,40 L99.4744167,40 Z M113.406467,20.6896552 L116.478101,40 L113.433893,40 L112.912812,36.4965517 L109.210397,36.4965517 L108.689316,40 L105.919361,40 L108.990995,20.6896552 L113.406467,20.6896552 Z M111.047892,24.1103448 L109.594351,33.8758621 L112.501433,33.8758621 L111.047892,24.1103448 Z M117.876791,40 L117.876791,20.6896552 L120.893573,20.6896552 L120.893573,37.2413793 L125.857552,37.2413793 L125.857552,40 L117.876791,40 Z M134.057716,40 L131.123209,32.3034483 L130.190749,34.0689655 L130.190749,40 L127.173966,40 L127.173966,20.6896552 L130.190749,20.6896552 L130.190749,29.1034483 L134.139992,20.6896552 L137.156774,20.6896552 L132.960704,29.2965517 L137.156774,40 L134.057716,40 Z M141.544822,23.4482759 L141.544822,28.8275862 L145.686042,28.8275862 L145.686042,31.5862069 L141.544822,31.5862069 L141.544822,37.2413793 L146.755628,37.2413793 L146.755628,40 L138.528039,40 L138.528039,20.6896552 L146.755628,20.6896552 L146.755628,23.4482759 L141.544822,23.4482759 Z M158,40 L154.928367,40 C154.763815,39.5034483 154.654114,39.2 154.654114,37.6275862 L154.654114,34.5931034 C154.654114,32.8 154.050757,32.137931 152.679492,32.137931 L151.637331,32.137931 L151.637331,40 L148.620549,40 L148.620549,20.6896552 L153.173148,20.6896552 C156.299632,20.6896552 157.643471,22.1517241 157.643471,25.1310345 L157.643471,26.6482759 C157.643471,28.6344828 157.012689,29.9310345 155.66885,30.5655172 C157.177241,31.2 157.670896,32.662069 157.670896,34.6758621 L157.670896,37.6551724 C157.670896,38.5931034 157.698322,39.2827586 158,40 Z M153.090872,23.4482759 L151.637331,23.4482759 L151.637331,29.3793103 L152.816619,29.3793103 C153.941056,29.3793103 154.626688,28.8827586 154.626688,27.337931 L154.626688,25.4344828 C154.626688,24.0551724 154.160458,23.4482759 153.090872,23.4482759 Z" id="Happy-Walker" fill="#222529"></path>
            </g>
        </g>
    </g>
</svg>